HIERARCHY
ROOT Hips
{
    OFFSET   0.000000   0.000000   0.000000
    CHANNELS 6 Xposition Yposition Zposition Zrotation Xrotation Yrotation
    JOINT Chest
    {
        OFFSET   0.000000   8.007230   0.000000
        CHANNELS 3 Zrotation Xrotation Yrotation
        JOINT Chest2
        {
            OFFSET   0.000000  22.077100   0.000000
            CHANNELS 3 Zrotation Xrotation Yrotation
            JOINT Neck
            {
                OFFSET   0.000000  23.254800   0.000000
                CHANNELS 3 Zrotation Xrotation Yrotation
                JOINT Head
                {
                    OFFSET   0.000010  14.370000   1.956600
                    CHANNELS 3 Zrotation Xrotation Yrotation
                    End Site
                    {
                        OFFSET   0.000000  19.566000   0.000000
                    }
                }
            }
            JOINT LeftCollar
            {
                OFFSET   3.911900  19.017000  -0.467062
                CHANNELS 3 Zrotation Xrotation Yrotation
                JOINT LeftShoulder
                {
                    OFFSET  10.383700   0.000000   0.000000
                    CHANNELS 3 Zrotation Xrotation Yrotation
                    JOINT LeftElbow
                    {
                        OFFSET  26.662100   0.001193   0.000835
                        CHANNELS 3 Zrotation Xrotation Yrotation
                        JOINT LeftWrist
                        {
                            OFFSET  28.869000  -0.000058  -0.000075
                            CHANNELS 3 Zrotation Xrotation Yrotation
                            JOINT LeftFinger0
                            {
                                OFFSET   2.044660  -2.323460   3.252850
                                CHANNELS 3 Zrotation Xrotation Yrotation
                                JOINT LeftFinger01
                                {
                                    OFFSET   3.088130   0.000000   0.000000
                                    CHANNELS 3 Zrotation Xrotation Yrotation
                                    JOINT LeftFinger02
                                    {
                                        OFFSET   2.639450   0.000000   0.000000
                                        CHANNELS 3 Zrotation Xrotation Yrotation
                                        End Site
                                        {
                                            OFFSET   2.582190   0.000000   0.000000
                                        }
                                    }
                                }
                            }
                            JOINT LeftFinger1
                            {
                                OFFSET   8.364480   0.000000   3.252850
                                CHANNELS 3 Zrotation Xrotation Yrotation
                                JOINT LeftFinger11
                                {
                                    OFFSET   4.646920   0.000000   0.000000
                                    CHANNELS 3 Zrotation Xrotation Yrotation
                                    JOINT LeftFinger12
                                    {
                                        OFFSET   2.323460   0.000000   0.000000
                                        CHANNELS 3 Zrotation Xrotation Yrotation
                                        End Site
                                        {
                                            OFFSET   2.273050   0.000000   0.000000
                                        }
                                    }
                                }
                            }
                            JOINT LeftFinger2
                            {
                                OFFSET   8.364490   0.000016   1.078090
                                CHANNELS 3 Zrotation Xrotation Yrotation
                                JOINT LeftFinger21
                                {
                                    OFFSET   5.111620   0.000000   0.000000
                                    CHANNELS 3 Zrotation Xrotation Yrotation
                                    JOINT LeftFinger22
                                    {
                                        OFFSET   2.788150   0.000012   0.000000
                                        CHANNELS 3 Zrotation Xrotation Yrotation
                                        End Site
                                        {
                                            OFFSET   2.727660   0.000000   0.000000
                                        }
                                    }
                                }
                            }
                            JOINT LeftFinger3
                            {
                                OFFSET   7.899780   0.000014  -1.078090
                                CHANNELS 3 Zrotation Xrotation Yrotation
                                JOINT LeftFinger31
                                {
                                    OFFSET   4.646930   0.000000   0.000000
                                    CHANNELS 3 Zrotation Xrotation Yrotation
                                    JOINT LeftFinger32
                                    {
                                        OFFSET   2.323470   0.000000   0.000000
                                        CHANNELS 3 Zrotation Xrotation Yrotation
                                        End Site
                                        {
                                            OFFSET   2.273050   0.000000   0.000000
                                        }
                                    }
                                }
                            }
                            JOINT LeftFinger4
                            {
                                OFFSET   7.435090   0.000000  -3.252850
                                CHANNELS 3 Zrotation Xrotation Yrotation
                                JOINT LeftFinger41
                                {
                                    OFFSET   3.717550   0.000000   0.000000
                                    CHANNELS 3 Zrotation Xrotation Yrotation
                                    JOINT LeftFinger42
                                    {
                                        OFFSET   1.858770   0.000000   0.000000
                                        CHANNELS 3 Zrotation Xrotation Yrotation
                                        End Site
                                        {
                                            OFFSET   1.818440   0.000000   0.000000
                                        }
                                    }
                                }
                            }
                        }
                    }
                }
            }
            JOINT RightCollar
            {
                OFFSET  -3.911900  19.017000  -0.467063
                CHANNELS 3 Zrotation Xrotation Yrotation
                JOINT RightShoulder
                {
                    OFFSET -10.383700   0.000023   0.000000
                    CHANNELS 3 Zrotation Xrotation Yrotation
                    JOINT RightElbow
                    {
                        OFFSET -26.662100   0.001246   0.001011
                        CHANNELS 3 Zrotation Xrotation Yrotation
                        JOINT RightWrist
                        {
                            OFFSET -28.869000  -0.000026  -0.000078
                            CHANNELS 3 Zrotation Xrotation Yrotation
                            JOINT RightFinger0
                            {
                                OFFSET  -2.044660  -2.323490   3.252850
                                CHANNELS 3 Zrotation Xrotation Yrotation
                                JOINT RightFinger01
                                {
                                    OFFSET  -3.088130   0.000000   0.000000
                                    CHANNELS 3 Zrotation Xrotation Yrotation
                                    JOINT RightFinger02
                                    {
                                        OFFSET  -2.639460   0.000000   0.000000
                                        CHANNELS 3 Zrotation Xrotation Yrotation
                                        End Site
                                        {
                                            OFFSET  -2.582190   0.000000   0.000000
                                        }
                                    }
                                }
                            }
                            JOINT RightFinger1
                            {
                                OFFSET  -8.364480   0.000000   3.252850
                                CHANNELS 3 Zrotation Xrotation Yrotation
                                JOINT RightFinger11
                                {
                                    OFFSET  -4.646920   0.000000   0.000000
                                    CHANNELS 3 Zrotation Xrotation Yrotation
                                    JOINT RightFinger12
                                    {
                                        OFFSET  -2.323470   0.000000   0.000000
                                        CHANNELS 3 Zrotation Xrotation Yrotation
                                        End Site
                                        {
                                            OFFSET  -2.273050   0.000000   0.000000
                                        }
                                    }
                                }
                            }
                            JOINT RightFinger2
                            {
                                OFFSET  -8.364480   0.000000   1.078090
                                CHANNELS 3 Zrotation Xrotation Yrotation
                                JOINT RightFinger21
                                {
                                    OFFSET  -5.111620   0.000000   0.000000
                                    CHANNELS 3 Zrotation Xrotation Yrotation
                                    JOINT RightFinger22
                                    {
                                        OFFSET  -2.788160   0.000000   0.000000
                                        CHANNELS 3 Zrotation Xrotation Yrotation
                                        End Site
                                        {
                                            OFFSET  -2.727660   0.000000   0.000000
                                        }
                                    }
                                }
                            }
                            JOINT RightFinger3
                            {
                                OFFSET  -7.899780   0.000000  -1.078090
                                CHANNELS 3 Zrotation Xrotation Yrotation
                                JOINT RightFinger31
                                {
                                    OFFSET  -4.646930   0.000000   0.000000
                                    CHANNELS 3 Zrotation Xrotation Yrotation
                                    JOINT RightFinger32
                                    {
                                        OFFSET  -2.323470   0.000000   0.000000
                                        CHANNELS 3 Zrotation Xrotation Yrotation
                                        End Site
                                        {
                                            OFFSET  -2.273050   0.000000   0.000000
                                        }
                                    }
                                }
                            }
                            JOINT RightFinger4
                            {
                                OFFSET  -7.435090   0.000000  -3.252850
                                CHANNELS 3 Zrotation Xrotation Yrotation
                                JOINT RightFinger41
                                {
                                    OFFSET  -3.717550   0.000000   0.000000
                                    CHANNELS 3 Zrotation Xrotation Yrotation
                                    JOINT RightFinger42
                                    {
                                        OFFSET  -1.858760   0.000000   0.000000
                                        CHANNELS 3 Zrotation Xrotation Yrotation
                                        End Site
                                        {
                                            OFFSET  -1.818440   0.000000   0.000000
                                        }
                                    }
                                }
                            }
                        }
                    }
                }
            }
        }
    }
    JOINT LeftHip
    {
        OFFSET   9.783010   0.000000   0.000000
        CHANNELS 3 Zrotation Xrotation Yrotation
        JOINT LeftKnee
        {
            OFFSET   0.000073 -41.789100   0.001749
            CHANNELS 3 Zrotation Xrotation Yrotation
            JOINT LeftAnkle
            {
                OFFSET   0.000111 -41.133200  -0.000179
                CHANNELS 3 Zrotation Xrotation Yrotation
                JOINT LeftToe
                {
                    OFFSET   0.000000  -6.358960  14.674500
                    CHANNELS 3 Zrotation Xrotation Yrotation
                    End Site
                    {
                        OFFSET   0.000000   0.000000   3.913200
                    }
                }
            }
        }
    }
    JOINT RightHip
    {
        OFFSET  -9.783010   0.000000   0.000000
        CHANNELS 3 Zrotation Xrotation Yrotation
        JOINT RightKnee
        {
            OFFSET   0.000424 -41.789200   0.005205
            CHANNELS 3 Zrotation Xrotation Yrotation
            JOINT RightAnkle
            {
                OFFSET   0.000000 -41.133200  -0.000155
                CHANNELS 3 Zrotation Xrotation Yrotation
                JOINT RightToe
                {
                    OFFSET   0.000000  -6.358960  14.674500
                    CHANNELS 3 Zrotation Xrotation Yrotation
                    End Site
                    {
                        OFFSET   0.000000   0.000000   3.913200
                    }
                }
            }
        }
    }
}
MOTION
Frames: 4
Frame Time:   0.016667
  0.219335  89.912700  -1.321470  -1.129970  -3.216310  -0.996881   0.308506   3.090050  -0.891113   0.666642   6.174870  -1.802820   0.853647  -1.018480   0.019401   1.405210  -2.075340   7.122460  -5.792830  -1.261300   6.736470 -70.997500  22.698400   0.128284  -3.402810  -5.879740 -14.418400  13.870300 -12.021100   4.194050  48.233800  38.455100 -78.850700 -20.295200  -0.000533   0.015135  -5.147610   0.000968   0.000745 -31.331800   1.552210  -2.547770 -25.663300  -0.010867   0.000387 -17.964400   0.003514  -0.007698 -28.455000  -3.933580   7.233360 -38.972400  -0.002493   0.001394 -25.955600   0.001750  -0.010288 -27.216100  -3.780130   7.316360 -28.997700  -0.007912   0.000189 -19.312500   0.004342   0.000075 -29.672600  -4.096720   7.147490 -44.892700   0.008074   0.000675 -29.898500   0.010644  -0.008280   9.675990   2.519040   8.770890  66.854000  12.006600  -1.468470   3.049160  -5.862780   8.902300 -14.830200 -27.853300  -5.105450 -48.338300  42.177400  85.369300   3.106970  -0.000401  -0.002061  -3.446520  -0.001599  -0.000000  24.519900  -0.014053  -0.030820  20.061800   0.000734  -0.000960  14.043200  -0.013841  -0.000794  24.681800  -0.637724  -1.387400  24.689500  -0.011890   0.001429  16.443200   0.000194   0.001241  25.373800  -0.654409  -1.379620  25.381700  -0.002896   0.002683  16.904300  -0.015693   0.002291  25.702600  -1.661260  -3.446780  38.629000  -0.000778  -0.002120  25.726900  -0.000234  -0.000922   1.406600   4.054650   2.526680   0.312385   1.562790  10.326700  -4.517150  -4.103680   3.997380   0.000000   0.000000  -0.000000   0.040953   3.987770  -8.749660   0.063350   2.491730 -10.020800  -5.086240  -0.143824   1.761760   0.000000   0.000000  -0.000000
  0.219511  89.912600  -1.345320  -1.130610  -3.235490  -1.002320   0.308686   3.100760  -0.889209   0.667105   6.196300  -1.799110   0.849322  -1.024000   0.019362   1.400200  -2.082030   7.112370  -5.799010  -1.261480   6.743300 -70.998900  22.727100   0.113471  -3.408430  -5.896370 -14.429400  13.866800 -12.032900   4.192760  48.234100  38.451000 -78.832500 -20.350000  -0.000540   0.015155  -5.175510   0.000964   0.000739 -31.357700   1.564750  -2.565680 -25.684900  -0.010873   0.000396 -17.979500   0.003511  -0.007692 -28.455500  -3.933650   7.226560 -39.043000  -0.002499   0.001396 -26.002600   0.001745  -0.010285 -27.226100  -3.780200   7.309160 -29.043300  -0.007916   0.000203 -19.342900   0.004337   0.000085 -29.698000  -4.096780   7.139400 -44.930400   0.008071   0.000686 -29.923600   0.010638  -0.008273   9.677420   2.521690   8.782220  66.836200  11.997100  -1.454690   3.047860  -5.848550   8.913060 -14.840500 -27.840500  -5.105790 -48.337600  42.161300  85.343000   3.179240  -0.000396  -0.002069  -3.410380  -0.001591   0.000000  24.524400  -0.027332  -0.059859  20.065400   0.000738  -0.000964  14.045800  -0.013854  -0.000796  24.641800  -0.710750  -1.548670  24.651300  -0.011885   0.001422  16.417700   0.000185   0.001234  25.374500  -0.730742  -1.539360  25.384400  -0.002888   0.002678  16.906000  -0.015691   0.002290  25.720000  -1.670890  -3.466160  38.656000  -0.000774  -0.002136  25.744900  -0.000238  -0.000931   1.406780   4.043620   2.526710   0.313088   1.596450  10.327300  -4.517100  -4.103800   3.997380  -0.000000   0.000000   0.000000   0.039519   3.975780  -8.749360   0.059795   2.519180 -10.021000  -5.090730  -0.143801   1.761770  -0.000000   0.000000   0.000000
  0.219687  89.912600  -1.384020  -1.131720  -3.267370  -1.011950   0.308811   3.117230  -0.884668   0.667354   6.229260  -1.790150   0.844997  -1.032220   0.019311   1.395320  -2.091860   7.095040  -5.808180  -1.261670   6.750130 -70.997900  22.769500   0.092408  -3.417240  -5.920540 -14.451200  13.855500 -12.044700   4.188380  48.249700  38.449100 -78.813400 -20.416600  -0.000559   0.015211  -5.208290   0.000960   0.000733 -31.397800   1.588990  -2.601270 -25.718600  -0.010892   0.000420 -18.003000   0.003502  -0.007676 -28.456100  -3.933760   7.217050 -39.143200  -0.002514   0.001402 -26.069400   0.001731  -0.010277 -27.236300  -3.780280   7.299130 -29.093400  -0.007928   0.000239 -19.376200   0.004323   0.000110 -29.726300  -4.096860   7.128110 -44.972600   0.008063   0.000716 -29.951700   0.010621  -0.008255   9.680720   2.527100   8.798910  66.809600  11.987600  -1.432260   3.046560  -5.834310   8.923810 -14.850100 -27.821800  -5.105860 -48.317300  42.136400  85.303600   3.283130  -0.000380  -0.002086  -3.358440  -0.001566   0.000000  24.536100  -0.040611  -0.088897  20.075000   0.000749  -0.000975  14.052500  -0.013890  -0.000806  24.601400  -0.783758  -1.709950  24.613100  -0.011874   0.001401  16.392300   0.000166   0.001215  25.390800  -0.807059  -1.699110  25.402700  -0.002866   0.002668  16.918200  -0.015687   0.002284  25.754900  -1.683960  -3.485550  38.709300  -0.000761  -0.002178  25.780400  -0.000249  -0.000957   1.406960   4.032580   2.526780   0.316307   1.644740  10.328000  -4.517040  -4.103920   3.997430  -0.000000   0.000000  -0.000000   0.039431   3.955920  -8.748980   0.053837   2.565430 -10.021200  -5.097990  -0.143641   1.761810   0.000000   0.000000   0.000000
  0.219655  89.912500  -1.412810  -1.137140  -3.293450  -1.021880   0.308411   3.127870  -0.878241   0.666353   6.250600  -1.777330   0.848848  -1.037500   0.019300   1.398730  -2.097690   7.080940  -5.812810  -1.259930   6.745920 -70.992300  22.792200   0.084647  -3.423790  -5.934230 -14.477900  13.828500 -12.042600   4.178990  48.278600  38.459200 -78.814700 -20.430200  -0.000590   0.015297  -5.213990   0.000965   0.000735 -31.424900   1.618640  -2.646910 -25.741900  -0.010923   0.000456 -18.019300   0.003487  -0.007652 -28.457500  -3.933830   7.213090 -39.191100  -0.002538   0.001409 -26.101300   0.001710  -0.010265 -27.236400  -3.779150   7.295080 -29.098600  -0.007946   0.000295 -19.379600   0.004301   0.000149 -29.729800  -4.096880   7.123530 -44.977800   0.008049   0.000762 -29.955200   0.010596  -0.008225   9.685300   2.535500   8.809050  66.794100  12.002900  -1.411430   3.046540  -5.836400   8.920000 -14.839900 -27.814400  -5.100080 -48.282900  42.120000  85.281500   3.327910  -0.000348  -0.002112  -3.336050  -0.001525  -0.000028  24.556100  -0.034847  -0.076267  20.091300   0.000767  -0.000990  14.063900  -0.013952  -0.000824  24.633400  -0.764422  -1.666210  24.644300  -0.011859   0.001363  16.413100   0.000138   0.001182  25.438400  -0.787385  -1.655520  25.449400  -0.002827   0.002658  16.949300  -0.015683   0.002264  25.795400  -1.688020  -3.485100  38.770100  -0.000736  -0.002238  25.820900  -0.000268  -0.001004   1.409690   4.034340   2.526870   0.324031   1.669590  10.325500  -4.517300  -4.101550   4.001610   0.000000   0.000000   0.000000   0.044058   3.940790  -8.749180   0.049769   2.603630 -10.018500  -5.103180  -0.141693   1.765630  -0.000000   0.000000   0.000000
